<svg width="424" height="513" viewBox="0 0 424 513" fill="none" xmlns="http://www.w3.org/2000/svg">
<path d="M208.8 123.3C209.8 123.8 210.6 125 211.8 125C212.9 125 214.6 124.6 214.7 123.5C214.9 122.1 212.8 121.2 211.5 120.6C209.8 119.9 207.6 119.6 206 120.5C205.6 120.7 205.2 121.2 205.4 121.6C205.7 122.9 207.7 122.7 208.8 123.3ZM186.9 125C188.1 125 188.9 123.8 189.9 123.3C191 122.7 193 122.9 193.4 121.7C193.6 121.3 193.2 120.8 192.8 120.6C191.2 119.7 189 120 187.3 120.7C186 121.3 183.9 122.2 184.1 123.6C184.2 124.6 185.9 125.1 186.9 125ZM408 403.8C404.4 399.8 402.7 392.2 400.8 384.1C399 376 396.9 367.3 390.3 361.7C389 360.6 387.7 359.6 386.3 358.8C385 358 383.6 357.3 382.2 356.8C391.4 329.5 387.8 302.3 378.5 277.7C367.1 247.6 347.2 221.3 332 203.3C314.9 181.8 298.3 161.4 298.6 131.3C299.1 85.4 303.7 0.099984 222.8 -1.60012e-05C120.4 -0.200016 146 103.4 144.9 135.2C143.2 158.6 138.5 177 122.4 199.9C103.5 222.4 76.9 258.7 64.3 296.6C58.3 314.5 55.5 332.7 58.1 349.9C51.6 355.7 46.7 364.6 41.5 370.1C37.3 374.4 31.2 376 24.5 378.4C17.8 380.8 10.5 384.4 5.99997 392.9C3.89997 396.8 3.19997 401 3.19997 405.3C3.19997 409.2 3.79997 413.2 4.39997 417.1C5.59997 425.2 6.89997 432.8 5.19997 437.9C-2.86102e-05 452.3 -0.70003 462.3 2.99997 469.6C6.79997 476.9 14.4 480.1 23.1 481.9C40.4 485.5 63.9 484.6 82.4 494.4C102.2 504.8 122.3 508.5 138.3 504.8C149.9 502.2 159.4 495.2 164.2 484.6C176.7 484.5 190.5 479.2 212.5 478C227.4 476.8 246.1 483.3 267.6 482.1C268.2 484.4 269 486.7 270.1 488.8V488.9C278.4 505.6 293.9 513.2 310.4 511.9C327 510.6 344.5 500.9 358.7 484C372.3 467.6 394.7 460.8 409.6 451.8C417 447.3 423 441.7 423.5 433.5C423.9 425.3 419.1 416.2 408 403.8ZM211.7 87.3C221.5 65.1 245.9 65.5 255.7 86.9C262.2 101.1 259.3 117.8 251.4 127.3C249.8 126.5 245.5 124.7 238.8 122.4C239.9 121.2 241.9 119.7 242.7 117.8C247.5 106 242.5 90.8 233.6 90.5C226.3 90 219.7 101.3 221.8 113.5C217.7 111.5 212.4 110 208.8 109.1C207.8 102.2 208.5 94.5 211.7 87.3ZM171 75.8C181.1 75.8 191.8 90 190.1 109.3C186.6 110.3 183 111.8 179.9 113.9C181.1 105 176.6 93.8 170.3 94.3C161.9 95 160.5 115.5 168.5 122.4C169.5 123.2 170.4 122.2 162.6 127.9C147 113.3 152.1 75.8 171 75.8ZM157.4 136.5C163.6 131.9 171 126.5 171.5 126C176.2 121.6 185 111.8 199.4 111.8C206.5 111.8 215 114.1 225.3 120.7C231.6 124.8 236.6 125.1 247.9 130C256.3 133.5 261.6 139.7 258.4 148.2C255.8 155.3 247.4 162.6 235.7 166.3C224.6 169.9 215.9 182.3 197.5 181.2C193.6 181 190.5 180.2 187.9 179.1C179.9 175.6 175.7 168.7 167.9 164.1C159.3 159.3 154.7 153.7 153.2 148.8C151.8 143.9 153.2 139.8 157.4 136.5ZM160.7 470.5C158 505.6 116.8 504.9 85.4 488.5C55.5 472.7 16.8 482 8.89997 466.6C6.49997 461.9 6.49997 453.9 11.5 440.2V440C13.9 432.4 12.1 424 10.9 416.1C9.69997 408.3 9.09997 401.1 11.8 396.1C15.3 389.4 20.3 387 26.6 384.8C36.9 381.1 38.4 381.4 46.2 374.9C51.7 369.2 55.7 362 60.5 356.9C65.6 351.4 70.5 348.8 78.2 350C86.3 351.2 93.3 356.8 100.1 366L119.7 401.6C129.2 421.5 162.8 450 160.7 470.5ZM159.3 444.6C155.2 438 149.7 431 144.9 425C152 425 159.1 422.8 161.6 416.1C163.9 409.9 161.6 401.2 154.2 391.2C140.7 373 115.9 358.7 115.9 358.7C102.4 350.3 94.8 340 91.3 328.8C87.8 317.6 88.3 305.5 91 293.6C96.2 270.7 109.6 248.4 118.2 234.4C120.5 232.7 119 237.6 109.5 255.2C101 271.3 85.1 308.5 106.9 337.6C107.5 316.9 112.4 295.8 120.7 276.1C132.7 248.7 158 201.2 160 163.4C161.1 164.2 164.6 166.6 166.2 167.5C170.8 170.2 174.3 174.2 178.8 177.8C191.2 187.8 207.3 187 221.2 179C227.4 175.5 232.4 171.5 237.1 170C247 166.9 254.9 161.4 259.4 155C267.1 185.4 285.1 229.3 296.6 250.7C302.7 262.1 314.9 286.2 320.2 315.3C323.5 315.2 327.2 315.7 331.1 316.7C344.9 281 319.4 242.5 307.8 231.8C303.1 227.2 302.9 225.2 305.2 225.3C317.8 236.5 334.4 259 340.4 284.3C343.2 295.9 343.7 308 340.8 320C357.2 326.8 376.7 337.9 371.5 354.8C369.3 354.7 368.3 354.8 367.3 354.8C370.5 344.7 363.4 337.2 344.5 328.7C324.9 320.1 308.5 320.1 306.2 341.2C294.1 345.4 287.9 355.9 284.8 368.5C282 379.7 281.2 393.2 280.4 408.4C279.9 416.1 276.8 426.4 273.6 437.4C241.5 460.3 196.9 470.3 159.3 444.6ZM416.7 433.1C415.8 449.9 375.5 453 353.5 479.6C340.3 495.3 324.1 504 309.9 505.1C295.7 506.2 283.4 500.3 276.2 485.8C271.5 474.7 273.8 462.7 277.3 449.5C281 435.3 286.5 420.7 287.2 408.9C288 393.7 288.9 380.4 291.4 370.2C294 359.9 298 353 305.1 349.1C305.4 348.9 305.8 348.8 306.1 348.6C306.9 361.8 313.4 375.2 324.9 378.1C337.5 381.4 355.6 370.6 363.3 361.8C372.3 361.5 379 360.9 385.9 366.9C395.8 375.4 393 397.2 403 408.5C413.6 420.1 417 428 416.7 433.1ZM161.3 148.7C163.3 150.6 166 153.2 169.3 155.8C175.9 161 185.1 166.4 196.6 166.4C208.2 166.4 219.1 160.5 228.4 155.6C233.3 153 239.3 148.6 243.2 145.2C247.1 141.8 249.1 138.9 246.3 138.6C243.5 138.3 243.7 141.2 240.3 143.7C235.9 146.9 230.6 151.1 226.4 153.5C219 157.7 206.9 163.7 196.5 163.7C186.1 163.7 177.8 158.9 171.6 154C168.5 151.5 165.9 149 163.9 147.1C162.4 145.7 162 142.5 159.6 142.2C158.2 142.1 157.8 145.9 161.3 148.7Z" fill="white"/>
</svg>
