<svg width="497" height="497" viewBox="0 0 497 497" fill="none" xmlns="http://www.w3.org/2000/svg">
<path d="M487.888 186.925C479.346 152.646 463.15 126.799 428.65 126.799H384.165V179.381C384.165 220.205 349.554 254.594 310.061 254.594H191.584C159.191 254.594 132.345 282.328 132.345 314.831V427.762C132.345 459.933 160.3 478.791 191.584 487.999C229.079 498.981 265.133 500.978 310.061 487.999C339.902 479.346 369.3 461.929 369.3 427.762V382.612H250.933V367.525H428.65C463.15 367.525 475.908 343.452 487.888 307.399C500.313 270.236 499.758 234.515 487.888 186.925V186.925ZM317.494 412.675C329.808 412.675 339.792 422.77 339.792 435.194C339.792 447.73 329.808 457.825 317.494 457.825C305.291 457.825 295.196 447.619 295.196 435.194C295.307 422.659 305.291 412.675 317.494 412.675ZM186.148 239.729H304.626C337.573 239.729 363.864 212.55 363.864 179.492V66.4507C363.864 34.28 336.796 10.2073 304.626 4.77158C264.911 -1.77351 221.758 -1.4407 186.148 4.88252C136.006 13.7572 126.909 32.2831 126.909 66.5617V111.712H245.498V126.799H82.4248C47.9243 126.799 17.7503 147.543 8.32088 186.925C-2.55065 232.075 -2.99438 260.252 8.32088 307.399C16.7519 342.454 36.8309 367.525 71.3314 367.525H112.044V313.389C112.044 274.23 145.879 239.729 186.148 239.729ZM178.715 81.5377C166.402 81.5377 156.418 71.4427 156.418 59.0182C156.529 46.4827 166.402 36.3877 178.715 36.3877C190.918 36.3877 201.013 46.5936 201.013 59.0182C201.013 71.4427 191.029 81.5377 178.715 81.5377V81.5377Z" fill="white"/>
</svg>
