<svg width="538" height="402" viewBox="0 0 538 402" fill="none" xmlns="http://www.w3.org/2000/svg">
<path fill-rule="evenodd" clip-rule="evenodd" d="M0 167.629C0 170.639 0.886997 172.625 1.38406 174.556C4.62352 187.112 11.5867 197.888 19.8482 207.717C31.6148 221.725 46.0253 233.001 60.7871 243.605C73.5907 252.801 86.6557 261.791 99.5108 270.918C101.718 272.485 103.804 274.287 106.2 276.21C104.139 277.323 102.425 278.303 100.642 279.206C83.6777 287.803 67.3561 297.439 52.3114 309.114C43.2443 316.152 34.4772 323.631 28.2853 333.405C18.3227 349.125 14.7961 365.872 22.2221 383.754C24.3903 388.977 27.6983 393.489 32.3647 396.824C33.8773 397.903 35.5741 398.973 37.3439 399.393C41.8774 400.459 46.4966 401.157 51.0859 402L64.0823 401.991C78.4542 400.711 91.5364 395.792 103.359 387.641C121.836 374.901 134.284 357.819 139.636 335.896C143.526 319.962 143.685 304.011 139.1 288.15C138.661 286.68 138.155 285.232 137.583 283.809C137.026 282.383 136.37 280.996 135.599 279.219L165.063 262.292L165.504 262.669C164.969 264.42 164.399 266.166 163.914 267.934C160.414 280.709 158.087 293.706 158.922 306.965C159.814 321.092 163.76 334.316 172.039 346.119C178.732 355.666 194.681 356.021 201.794 346.44C204.318 343.037 206.765 339.479 208.603 335.682C213.406 325.771 217.854 315.685 222.443 305.668L223.245 303.835C222.915 308.579 222.529 312.744 222.353 316.914C222.079 323.425 222.461 329.898 224.689 336.093C226.596 341.393 229.839 345.353 235.915 346.051C240.072 346.526 243.384 344.625 246.439 342.215C251.173 338.478 255.096 333.819 257.97 328.52C266.116 313.575 274.481 298.719 281.864 283.398C289.851 266.826 296.835 249.77 304.253 232.915L305.478 229.927C307.231 236.807 308.452 243.545 310.702 249.924C313.316 257.326 316.551 264.552 320.073 271.578C321.74 274.895 321.547 277.049 319.237 279.831C309.57 291.476 300.071 303.262 290.562 315.035C288.458 317.633 286.363 320.279 284.61 323.117C283.547 324.91 282.848 326.894 282.553 328.957C282.259 330.855 282.711 332.795 283.816 334.368C284.921 335.941 286.592 337.026 288.48 337.395C292.289 338.214 296.196 338.492 300.083 338.221C313.354 337.245 325.404 332.591 336.056 324.705C349.858 314.491 354.289 300.552 350.947 284.031C350.042 279.549 348.444 275.191 346.889 270.871C346.19 268.923 346.143 267.558 347.416 265.742C358.45 250.001 367.877 233.301 376.644 216.215C376.991 215.543 377.346 214.871 377.955 214.151C380.796 228.921 385.072 243.156 392.734 256.072C388.826 259.835 384.957 263.247 381.456 267.005C373.747 275.285 367.062 284.275 363.574 295.239C362.075 299.965 360.922 304.769 361.59 309.816C362.627 317.655 369.055 322.749 376.772 320.964C393.287 317.145 407.543 309.371 417.96 295.599C424.97 286.326 425.609 275.983 422.673 265.147C421.868 262.202 420.912 259.304 419.884 255.926C423.959 254.663 427.931 253.148 432.04 252.21C453.375 247.347 474.479 248.194 495.039 255.892C507.041 260.387 516.738 267.909 522.488 279.742C529.511 294.207 525.629 307.932 511.981 317.077C510.709 317.929 509.252 318.601 508.198 319.667C507.86 320.058 507.608 320.515 507.456 321.008C507.305 321.502 507.258 322.022 507.319 322.535C507.409 323.062 508.802 323.721 509.603 323.712C514.09 323.678 517.728 321.328 521.22 318.913C529.97 312.864 536.355 304.726 537.73 294.01L538 293.205L537.67 286.227C537.537 285.825 537.769 285.427 537.739 285.123C535.879 269.518 527.536 257.416 515.401 247.929C501.346 236.948 484.75 232.427 467.199 231.712C452.964 231.1 438.747 233.286 425.356 238.147C421.512 239.538 417.703 241.186 413.838 242.74C413.319 241.803 412.762 240.904 412.304 239.975C408.336 231.858 403.528 224.101 402.465 214.794C401.711 208.184 400.785 201.582 402.358 195.045C403.871 188.756 405.842 182.574 407.697 176.371C408.653 173.177 407.98 171.388 404.929 169.949C403.866 169.42 402.731 169.048 401.561 168.845C394.062 167.758 386.666 168.378 379.403 170.489C376.832 171.238 374.964 172.677 374.394 175.519C374.068 177.15 373.404 178.713 372.941 180.322C371.043 187.014 369.698 193.833 366.63 200.208C358.942 216.198 350.167 231.584 341.185 246.859C340.213 248.507 339.188 250.125 337.963 252.124C334.809 245.532 331.445 239.615 330.426 232.68C329.273 224.837 328.365 217.007 330.318 209.224C331.771 203.419 333.669 197.721 335.418 191.993C336.245 189.27 335.863 187.84 333.395 186.406C332.148 185.682 330.738 185.04 329.333 184.83C321.644 183.66 313.787 184.302 306.391 186.706C304.064 187.459 302.843 188.962 302.132 191.359C300.041 198.431 298.258 205.675 295.323 212.4C283.436 239.628 271.207 266.714 258.99 293.796C256.441 299.452 253.454 304.91 250.579 310.415C249.85 311.811 248.788 313.04 247.879 314.35C247.151 313.489 246.868 312.898 246.872 312.307C246.894 308.827 246.478 305.244 247.142 301.879C249.182 291.702 251.436 281.569 253.904 271.488C255.918 263.157 258.262 254.903 260.494 246.628C261.244 243.858 261.257 241.268 259.264 238.939C255.918 235.039 248.925 234.182 244.777 237.188L242.943 238.224L243.299 235.27C244.173 228.938 244.348 222.628 242.609 216.39C240.44 208.616 234.887 204.142 226.814 204.391C223.052 204.506 219.101 205.148 215.617 206.518C200.967 212.255 189.702 222.414 180.112 234.636C179.223 235.771 178.121 236.722 176.868 237.436C164.471 244.303 152.036 251.084 139.606 257.891L125.769 265.464C122.058 261.928 118.686 258.259 114.86 255.147C103.174 245.626 91.3007 236.34 79.5341 226.926C69.1043 218.582 59.0003 209.892 51.2701 198.842C45.5196 190.623 41.8131 181.628 41.4575 171.465C41.0075 158.515 44.6841 146.682 51.283 135.667C59.7245 121.574 71.2383 110.263 83.8962 100.018C97.2868 89.1873 111.77 79.9916 126.781 71.5964C147.781 59.8535 169.382 49.4591 192.543 42.5965C216.29 35.5585 240.385 31.53 265.238 34.3384C275.008 35.4429 284.495 37.6776 293.206 42.451C299.878 46.1027 305.35 50.8847 307.895 58.3594C310.406 65.7143 310.329 73.1676 308.589 80.638C305.054 95.7673 296.763 108.238 286.329 119.382C269.214 137.649 248.338 150.085 224.834 158.301C211.321 163.031 197.261 166.027 182.991 167.218C171.298 168.199 159.848 167.163 148.775 163.1C141.444 160.407 135.059 156.289 129.926 150.312C129.009 149.242 127.835 148.082 126.125 149.084C124.45 150.068 124.154 151.661 124.715 153.275C125.654 155.955 126.519 158.746 127.98 161.143C131.653 167.158 137.009 171.521 142.905 175.262C154.23 182.459 166.888 184.878 180.013 185.438C199.93 186.299 219.362 183.328 238.521 177.989C265.872 170.369 289.654 156.909 308.726 135.675C324.607 117.995 335.949 98.0405 338.379 73.9467C339.566 62.1867 338.301 50.6663 332.791 39.938C326.813 28.3149 317.309 19.6715 305.945 13.7165C289.397 5.04737 271.537 0 253.103 0H234.634C212.309 0 190.726 6.39162 169.746 14.0162C153.866 19.7913 138.294 26.6068 123.177 34.15C90.2551 50.585 59.5959 70.402 34.4129 97.651C21.8664 111.226 11.2439 126.206 5.13344 143.844C3.2892 149.11 1.70046 154.461 0.372796 159.88L0 167.629ZM119.663 314.054C118.236 333.143 109.576 348.619 95.4229 361.154C87.4613 368.201 78.33 373.218 67.6946 374.982C63.8381 375.62 59.8916 375.774 56.1508 374.177C50.8159 371.9 49.6204 367.169 49.5176 362.13C49.359 354.099 52.1743 346.839 56.0351 339.929C61.0742 330.922 68.4616 324.055 76.3503 317.642C88.7768 307.534 102.257 298.981 116.064 290.907L117.105 290.478C119.239 298.356 120.254 306.134 119.663 314.054ZM227.465 231.092C226.458 237.188 225.199 243.288 223.416 249.196C217.254 269.647 209.34 289.464 200.783 309.015C199.201 312.633 196.9 315.934 194.899 319.363C194.559 319.89 194.151 320.371 193.687 320.793C191.21 323.237 188.862 323.109 187.611 319.911C186.154 316.195 185.258 312.218 184.487 308.283C183.968 305.642 184.093 302.868 183.93 300.162C184.097 280.923 189.972 263.439 199.939 247.163C204.048 240.45 208.521 234.054 215.356 229.807C217.482 228.487 219.783 227.469 222.191 226.785C225.833 225.762 228.07 227.444 227.465 231.092ZM301.013 324.71L327.448 293.873C328.549 305.325 309.065 328.186 301.013 324.71ZM385.441 303.959C383.573 305.03 381.537 305.8 379.622 306.789C377.869 307.697 377.291 306.781 377.239 305.274C377.214 304.231 377.348 303.19 377.638 302.187C381.207 289.609 387.776 278.872 397.55 270.139L398.236 269.788C402.885 282.781 397.512 297.05 385.441 303.959Z" fill="white"/>
</svg>
