<svg width="401" height="458" viewBox="0 0 401 458" fill="none" xmlns="http://www.w3.org/2000/svg">
<path fill-rule="evenodd" clip-rule="evenodd" d="M228.61 8.44493L372.85 94.0792C390.092 104.287 400.681 123.21 400.681 143.625V314.932C400.681 335.346 390.053 354.27 372.85 364.477L228.572 450.111C219.97 455.196 210.336 457.757 200.74 457.757C191.107 457.757 181.511 455.234 172.909 450.111L28.669 364.477C11.4275 354.27 0.837891 335.384 0.837891 314.932V143.663C0.837891 123.21 11.4657 104.325 28.669 94.1174L172.948 8.48316C181.549 3.36039 191.183 0.799011 200.779 0.799011C210.374 0.799011 220.008 3.36039 228.61 8.44493ZM261.373 373.805L261.143 361.495C271.924 352.855 278.958 338.672 278.767 325.521C278.614 312.103 272.88 306.292 259.538 306.062C249.521 305.909 246.654 304.189 246.578 298.531C246.54 293.791 249.101 287.406 256.441 283.698C263.437 280.181 267.872 281.137 269.745 281.557C270.089 281.595 270.433 281.557 270.815 281.366C271.083 281.226 271.328 281.045 271.542 280.831C272.115 280.296 272.574 279.455 272.803 278.613L275.556 267.603C275.938 266.189 275.518 264.966 274.638 264.736C270.548 263.78 266.037 264.354 260.837 266.418L260.723 253.994C260.723 252.503 259.729 251.776 258.582 252.35L251.509 256.861C250.324 257.473 249.407 259.155 249.407 260.684L249.521 273.108C239.046 281.442 232.471 294.67 232.586 307.362C232.739 322.807 242.525 324.871 253 324.833C261.22 324.91 264.584 327.471 264.66 333.741C264.737 340.622 260.187 347.58 253.383 351.02C248.03 353.696 242.487 354.385 238.129 352.932C237.785 352.779 237.364 352.817 236.944 353.046C236.714 353.161 236.485 353.314 236.256 353.543C235.644 354.079 235.185 354.958 234.956 355.837L232.318 366.962C232.012 368.262 232.356 369.371 233.121 369.676C237.135 371.282 243.481 370.67 249.713 368.071L249.827 380.19C249.827 381.68 250.821 382.369 251.968 381.795L259.27 377.59C260.417 376.978 261.373 375.296 261.373 373.805ZM225.36 214.502L361.84 130.206C374.417 122.866 385.198 125.619 390.053 135.826C387.798 122.102 379.77 109.906 367.88 102.834L223.602 17.1995C216.682 13.1089 208.807 10.9299 200.817 10.9299C192.827 10.9299 184.952 13.1089 178.032 17.1995L33.7536 102.834C19.6469 111.206 10.8923 126.842 10.8923 143.625V314.893C10.8923 331.676 19.6469 347.312 33.7536 355.684L177.994 441.319C184.913 445.409 192.789 447.588 200.779 447.588C203.302 447.588 205.863 447.282 208.348 446.862C200.74 444.53 195.771 436.578 195.771 424.306V256.134C195.809 235.605 208.348 224.442 225.36 214.502ZM299.105 352.932L335.041 331.447C335.997 330.911 336.761 331.37 336.761 332.517V340.813C336.761 341.96 336.608 342.992 335.653 343.565L299.181 365.739C298.226 366.312 297.461 365.815 297.461 364.668V355.264C297.461 354.117 298.149 353.505 299.105 352.932Z" fill="white"/>
</svg>
