<svg width="413" height="473" viewBox="0 0 413 473" fill="none" xmlns="http://www.w3.org/2000/svg">
<path d="M411.331 119.684L412.479 118.919C410.184 114.713 406.74 110.889 403.296 108.977L218.484 2.67664C215.423 0.764754 211.214 0 206.622 0C202.031 0 197.822 1.14713 194.761 2.67664L11.0964 109.36C4.59161 113.183 0 122.743 0 130.008V342.992C0 347.198 0.765266 351.787 3.4437 355.993L2.67844 356.375C4.59161 359.434 7.27005 362.111 9.94848 363.64L194.378 470.323C197.439 472.235 201.648 473 206.24 473C210.831 473 215.04 471.853 218.101 470.323L401.766 363.64C408.27 359.816 412.862 350.257 412.862 342.992V129.626C413.245 126.567 412.862 123.125 411.331 119.684ZM206.622 387.348C123.208 387.348 55.4819 319.667 55.4819 236.309C55.4819 152.951 123.208 85.27 206.622 85.27C262.87 85.27 311.847 116.243 337.866 161.745L288.123 190.424C272.053 161.745 241.442 142.627 206.622 142.627C154.967 142.627 112.877 184.688 112.877 236.309C112.877 287.93 154.967 329.991 206.622 329.991C241.442 329.991 272.053 310.872 288.123 282.576L337.483 311.637C311.464 356.757 262.487 387.348 206.622 387.348ZM401.766 228.661H389.521L386.078 243.956H401.766V263.075H382.634L378.042 286.018H359.293L363.885 263.075H349.345L344.753 286.018H326.387L330.978 263.075H321.413V243.956H334.805L338.248 228.661H321.413V209.542H341.692L346.284 186.6H365.033L360.441 209.542H374.981L379.573 186.6H397.939L393.348 209.542H401.766V228.661ZM353.171 243.956H367.711L371.155 228.661H356.615L353.171 243.956Z" fill="white"/>
</svg>
