<svg width="476" height="449" viewBox="0 0 476 449" fill="none" xmlns="http://www.w3.org/2000/svg">
<path d="M422.3 172.5C407.3 172.5 394.1 178.7 384.4 188.4C348.7 163.7 300.6 147.8 247.3 146.1L275 21.2999L363.2 41.0999C363.2 62.6999 380.8 80.2999 402.4 80.2999C424.4 80.2999 442.1 62.1999 442.1 40.5999C442.1 18.9999 424.5 0.899902 402.4 0.899902C387 0.899902 373.7 10.1999 367.1 22.8999L269.7 1.2999C264.8 -9.799e-05 260 3.4999 258.7 8.3999L228.3 146C175.4 148.2 127.8 164.1 92.0001 188.8C82.3001 178.7 68.6001 172.5 53.6001 172.5C-1.9999 172.5 -20.1999 247.1 30.7001 272.6C28.9001 280.5 28.1001 288.9 28.1001 297.3C28.1001 381.1 122.5 449 238.4 449C354.8 449 449.2 381.1 449.2 297.3C449.2 288.9 448.3 280.1 446.1 272.2C496 246.6 477.6 172.5 422.3 172.5V172.5ZM111.4 277.9C111.4 255.9 129 238.2 151.1 238.2C172.7 238.2 190.3 255.8 190.3 277.9C190.3 299.5 172.7 317.1 151.1 317.1C129.1 317.2 111.4 299.5 111.4 277.9V277.9ZM325.7 371.4C289.3 407.8 186.6 407.8 150.2 371.4C146.2 367.9 146.2 361.7 150.2 357.7C153.7 354.2 159.9 354.2 163.4 357.7C191.2 386.2 283.4 386.7 312.4 357.7C315.9 354.2 322.1 354.2 325.6 357.7C329.7 361.7 329.7 367.9 325.7 371.4ZM324.9 317.2C303.3 317.2 285.7 299.6 285.7 278C285.7 256 303.3 238.3 324.9 238.3C346.9 238.3 364.6 255.9 364.6 278C364.5 299.5 346.9 317.2 324.9 317.2Z" fill="white"/>
</svg>
