<svg width="497" height="497" viewBox="0 0 497 497" fill="none" xmlns="http://www.w3.org/2000/svg">
<path fill-rule="evenodd" clip-rule="evenodd" d="M53.2501 0H443.748C473.148 0 497 23.8516 497 53.2501V443.748C497 473.148 473.148 497 443.748 497H53.2501C23.8518 497 0 473.148 0 443.748V53.2501C0 23.8516 23.8518 0 53.2501 0ZM295.871 410.358C309.516 437.429 337.583 458.063 380.959 458.063C425.223 458.063 458.281 434.986 458.281 393.052C458.281 354.002 435.985 336.584 396.269 319.611L384.62 314.619C364.541 305.855 355.888 300.197 355.888 286.219C355.888 274.903 364.541 266.25 378.186 266.25C391.609 266.25 400.262 271.908 408.25 286.219L444.639 262.922C429.327 235.853 408.028 225.536 378.297 225.536C336.695 225.536 309.959 252.161 309.959 287.217C309.959 325.269 332.258 343.352 365.983 357.663L377.631 362.654C399.042 372.084 411.689 377.742 411.689 393.717C411.689 407.141 399.264 416.792 379.961 416.792C356.997 416.792 343.906 404.7 333.922 388.392L295.871 410.358ZM176.597 267.986V458.44H225.186V267.986H290.089V227.2H111.694V267.986H176.597Z" fill="white"/>
</svg>
